<svg width="24" height="24" viewBox="0 0 24 24" fill="none" xmlns="http://www.w3.org/2000/svg">
<g id="Arhive_load">
<path id="Vector 9" d="M8 9L12 12M12 12L16 9M12 12L12 2" stroke="#fff" stroke-width="2"/>
<path id="Rectangle 1" d="M16 5H17C18.8856 5 19.8284 5 20.4142 5.58579C21 6.17157 21 7.11438 21 9V17C21 18.8856 21 19.8284 20.4142 20.4142C19.8284 21 18.8856 21 17 21H7C5.11438 21 4.17157 21 3.58579 20.4142C3 19.8284 3 18.8856 3 17V9C3 7.11438 3 6.17157 3.58579 5.58579C4.17157 5 5.11438 5 7 5H8" stroke="#fff" stroke-width="2"/>
</g>
</svg>
